<svg xmlns="http://www.w3.org/2000/svg" xmlns:xlink="http://www.w3.org/1999/xlink" width="260" height="260" viewBox="0 0 260 260" fill="none"><defs><rect id="path_0" x="0" y="0" width="260" height="260" /></defs><g opacity="1" transform="translate(0 0)  rotate(0 130 130)"> fill="#000000" opacity="1" transform="translate(0 0)  rotate(0 130 130)" stroke="#000000" stroke-width="1" stroke-opacity="1"<rect fill="#000000" opacity="1" transform="translate(0 0)  rotate(0 130 130)" stroke="#000000" stroke-width="1" stroke-opacity="1" x="0" y="0" width="260" height="260" rx="36" /><mask id="bg-mask-0" fill="white"><use xlink:href="#path_0"></use></mask><g mask="url(#bg-mask-0)" ><path id="分组 1" fill-rule="evenodd" style="fill:#FFFFFF" transform="translate(56 25)  rotate(0 73.55218 105.46379999999999)" opacity="1" d="M29.57 12.6C29.57 5.64 22.95 0 14.78 0C6.62 0 0 5.64 0 12.6L0 140.81C0 141.52 0.07 142.22 0.21 142.89C3.03 180.94 34.8 210.93 73.55 210.93C114.18 210.93 147.1 178 147.1 137.38C147.1 96.76 114.18 63.83 73.55 63.83C57.06 63.83 41.84 69.26 29.57 78.43L29.57 12.6Z M121.848 137.378C121.848 110.708 100.228 89.0885 73.548 89.0885C54.008 89.0885 37.168 100.708 29.568 117.408C26.798 123.498 25.258 130.258 25.258 137.378C25.258 141.108 25.688 144.818 26.538 148.448C31.548 169.788 50.698 185.668 73.548 185.668C100.228 185.668 121.848 164.048 121.848 137.378Z " /></g></g></svg>